<?xml version="1.0" standalone="no"?>
<!DOCTYPE svg PUBLIC "-//W3C//DTD SVG 20010904//EN"
 "http://www.w3.org/TR/2001/REC-SVG-20010904/DTD/svg10.dtd">
<svg version="1.0" xmlns="http://www.w3.org/2000/svg"
 width="1000.000000pt" height="1000.000000pt" viewBox="0 0 1000.000000 1000.000000"
 preserveAspectRatio="xMidYMid meet">
<metadata>
Created by potrace 1.11, written by Peter Selinger 2001-2013
</metadata>
<g transform="translate(0.000000,1000.000000) scale(0.100000,-0.100000)"
fill="#000000" stroke="none">
<path d="M4640 9669 c-1952 -131 -3640 -1449 -4243 -3314 -160 -494 -231 -951
-231 -1485 1 -429 42 -762 145 -1175 158 -629 461 -1249 863 -1764 588 -754
1384 -1316 2291 -1616 1062 -352 2247 -314 3292 106 288 115 668 318 913 487
421 290 815 666 1124 1071 813 1068 1138 2446 892 3781 -311 1681 -1511 3078
-3136 3650 -594 209 -1274 301 -1910 259z m3332 -1309 c68 -19 130 -70 163
-134 25 -51 30 -70 29 -130 0 -41 -7 -87 -16 -107 -24 -55 -87 -119 -143 -145
-48 -23 -60 -24 -276 -24 l-226 0 -6 -37 c-3 -21 -26 -261 -52 -533 -64 -687
-415 -4105 -426 -4144 -24 -86 -110 -172 -199 -196 -22 -6 -736 -10 -1975 -10
-2143 0 -2001 -4 -2114 63 -67 40 -116 95 -152 172 -18 39 -162 591 -417 1595
-214 844 -393 1554 -397 1576 -8 53 10 151 41 223 33 73 105 140 202 189 l76
37 2373 3 2372 2 6 33 c2 17 34 321 70 673 39 387 71 659 81 687 16 48 75 122
125 158 16 11 53 29 82 39 47 17 85 19 397 20 205 0 360 -4 382 -10z m-4157
-5704 c158 -51 311 -185 383 -338 50 -105 65 -168 65 -282 0 -184 -59 -324
-193 -457 -70 -71 -101 -94 -170 -127 -47 -22 -106 -45 -132 -51 -327 -78
-656 101 -773 419 -36 98 -45 259 -21 365 44 187 202 378 372 450 146 62 318
70 469 21z m2310 19 c212 -44 410 -220 482 -427 34 -99 42 -246 18 -352 -49
-221 -222 -411 -438 -482 -71 -23 -99 -27 -202 -27 -103 0 -131 4 -200 26 -44
15 -103 40 -132 57 -122 70 -243 217 -291 353 -37 106 -42 274 -13 382 30 109
73 184 153 270 166 177 389 249 623 200z"/>
<path d="M2361 6193 c0 -10 157 -628 348 -1373 l347 -1355 1720 -3 1719 -2
138 1362 c76 750 138 1369 137 1376 0 9 -448 12 -2205 12 -2094 0 -2205 -1
-2204 -17z"/>
</g>
</svg>
